# xmcd
#
# Track frame offsets:
#	150
#	16537
#	35480
#	52032
#	58542
#	68342
#	81717
#	90075
#	96160
#	103242
#	116715
#	127660
#	136082
#
# Disc length: 2066 seconds
#
# Revision: 1
# Processed by: cddbd v1.5.1PL0 Copyright (c) Steve Scherf et al.
# Submitted via: CDex 1.50Beta5
#
DISCID=9d08100d
DTITLE=Original Soundtrack - 宇宙家族カールビンソン
DYEAR=1900
DGENRE=
TTITLE0=渡辺博也/誕生
TTITLE1=斉藤美和子/いちばんステキなラブ・ソング
TTITLE2=渡辺博也/安息(やすらぎ)
TTITLE3=渡辺博也/宇宙のマーチ
TTITLE4=渡辺博也/危機
TTITLE5=渡辺博也/悲しみ
TTITLE6=渡辺博也/楽しい家族
TTITLE7=渡辺博也/宇宙からのメッセージ
TTITLE8=渡辺博也/緊迫
TTITLE9=渡辺博也/過ぎゆく日々
TTITLE10=渡辺博也/別離(わかれ)
TTITLE11=渡辺博也/アニカ・愛のテーマ
TTITLE12=斉藤美和子/アニカの歌〜すぷりんぐ・そんぐ
EXTD=
EXTT0=
EXTT1=
EXTT2=
EXTT3=
EXTT4=
EXTT5=
EXTT6=
EXTT7=
EXTT8=
EXTT9=
EXTT10=
EXTT11=
EXTT12=
PLAYORDER=
